<?xml version="1.0" standalone="no"?>
<!DOCTYPE svg PUBLIC "-//W3C//DTD SVG 20010904//EN"
 "http://www.w3.org/TR/2001/REC-SVG-20010904/DTD/svg10.dtd">
<svg version="1.0" xmlns="http://www.w3.org/2000/svg"
 width="310.000000pt" height="163.000000pt" viewBox="0 0 310.000000 163.000000"
 preserveAspectRatio="xMidYMid meet">

<g transform="translate(0.000000,163.000000) scale(0.100000,-0.100000)"
fill="#000000" stroke="none">
<path d="M0 1483 c0 -132 2 -146 15 -132 9 8 18 28 21 43 2 15 12 40 22 54 9
14 16 26 14 27 -7 1 17 53 28 60 5 3 8 10 5 15 -3 4 8 20 25 33 47 40 39 47
-50 47 l-80 0 0 -147z"/>
<path d="M1445 1615 c-22 -8 -76 -24 -120 -36 -44 -12 -132 -37 -195 -55 -63
-19 -133 -40 -155 -46 -22 -6 -60 -17 -85 -25 -25 -8 -81 -23 -125 -33 -44
-11 -106 -28 -138 -39 -32 -11 -65 -17 -75 -14 -10 4 -14 2 -9 -3 5 -5 -20
-16 -60 -25 -37 -9 -104 -27 -148 -39 -78 -21 -116 -31 -262 -66 l-73 -17 0
-64 c0 -34 4 -63 10 -63 9 0 426 113 875 238 206 58 914 263 1005 292 14 5
-68 8 -190 9 -164 0 -225 -3 -255 -14z"/>
<path d="M1984 1608 c23 -37 24 -62 1 -65 -11 -1 -110 -28 -220 -61 -210 -63
-358 -105 -770 -221 -476 -134 -601 -169 -797 -221 l-198 -54 0 -493 0 -493
325 0 325 0 0 153 0 152 248 68 c778 211 874 237 893 237 11 0 14 -45 17 -248
1 -136 5 -273 8 -304 l6 -58 150 0 151 0 -7 68 c-3 37 -9 165 -12 286 -6 185
-5 218 7 214 17 -6 26 -100 35 -370 l6 -198 474 0 474 0 0 399 0 399 -150 123
c-87 73 -147 129 -145 137 3 7 0 10 -5 7 -6 -4 -38 17 -73 47 -83 72 -104 89
-162 137 -55 46 -96 82 -297 260 l-137 121 -81 0 -80 0 14 -22z m-204 -336 c0
-13 -20 -23 -92 -43 -51 -14 -94 -25 -96 -24 -1 1 0 9 4 18 3 10 38 27 82 41
95 30 102 30 102 8z m5 -71 c-13 -12 -204 -65 -210 -59 -10 10 7 38 24 38 9 0
52 11 96 24 47 14 84 20 90 15 6 -6 6 -12 0 -18z m-321 -16 c7 -18 8 -17 -101
-49 -79 -22 -83 -23 -83 -5 0 14 16 23 73 39 39 12 77 23 82 25 19 7 23 5 29
-10z m256 -54 c0 -15 -16 -23 -78 -40 -95 -25 -91 -25 -85 -3 3 12 27 24 76
39 92 26 87 26 87 4z m-235 -2 c4 -6 5 -13 2 -16 -4 -4 -193 -62 -204 -63 -2
0 -3 8 -3 18 0 15 19 24 88 44 103 30 109 31 117 17z m-275 -27 c0 -5 -62 -26
-137 -47 -76 -21 -144 -40 -150 -43 -8 -2 -13 4 -13 15 0 17 18 25 108 50 105
30 192 41 192 25z m300 -36 c0 -8 -32 -22 -79 -34 -94 -26 -93 -26 -89 -5 2
11 28 23 78 38 78 23 90 23 90 1z m214 -6 c-9 -9 -355 -110 -377 -110 -5 0 -7
7 -5 17 4 23 177 70 189 51 7 -10 9 -9 9 3 0 12 24 23 88 41 81 23 120 22 96
-2z m-474 1 c0 -16 -25 -25 -152 -60 -84 -24 -161 -45 -170 -47 -13 -4 -18 0
-18 13 0 15 24 24 128 52 70 19 143 40 162 47 47 17 50 17 50 -5z m-370 -46
c0 -8 -17 -19 -42 -25 -24 -7 -73 -20 -110 -30 -65 -18 -68 -18 -68 -1 0 14
20 24 93 44 109 30 127 32 127 12z m380 -10 c0 -17 -22 -30 -68 -40 -29 -6
-33 -5 -30 11 2 12 19 22 48 30 25 7 46 12 48 13 1 1 2 -6 2 -14z m470 0 c0
-13 -55 -35 -87 -35 -24 0 -13 28 15 38 41 15 72 14 72 -3z m-120 -24 c0 -5
-6 -13 -12 -19 -18 -14 -120 -42 -130 -36 -20 12 1 29 58 45 69 20 84 22 84
10z m-730 -26 c0 -8 -1 -15 -3 -15 -1 0 -49 -13 -107 -30 -58 -16 -106 -30
-107 -30 -2 0 -3 8 -3 18 0 13 21 23 93 43 111 32 127 34 127 14z m190 -8 c0
-12 -60 -37 -89 -37 -25 0 -9 30 22 39 47 13 67 13 67 -2z m660 -2 c0 -8 -1
-15 -2 -15 -2 0 -24 -7 -50 -15 -45 -13 -48 -13 -48 4 0 13 11 22 38 29 53 14
62 14 62 -3z m-501 -12 c-7 -10 -14 -19 -15 -21 0 -1 -50 -16 -110 -32 -60
-17 -115 -33 -121 -35 -8 -2 -13 4 -13 14 0 14 24 25 128 54 150 42 148 42
131 20z m211 -3 c0 -14 -11 -22 -37 -29 -51 -14 -63 -14 -63 3 0 9 20 21 48
29 26 8 48 15 50 16 1 1 2 -8 2 -19z m144 -23 c-3 -9 -25 -22 -49 -30 -39 -14
-44 -14 -49 0 -8 19 -12 16 49 34 57 18 58 18 49 -4z m206 -5 c0 -14 -15 -23
-62 -37 -35 -9 -71 -20 -80 -22 -13 -4 -18 0 -18 14 0 14 16 23 73 40 92 26
87 26 87 5z m-970 -26 c0 -8 -19 -18 -44 -25 -56 -14 -56 -14 -56 3 0 15 41
34 78 35 12 1 22 -5 22 -13z m410 -6 c8 -5 12 -11 10 -13 -3 -3 -58 -19 -124
-37 -65 -17 -125 -34 -132 -37 -9 -3 -14 2 -14 14 0 16 19 25 108 50 122 35
131 36 152 23z m210 -4 c0 -14 -49 -36 -81 -36 -32 0 -21 29 14 39 47 14 67
13 67 -3z m130 -15 c0 -14 -29 -41 -45 -41 -7 0 -15 7 -19 15 -4 10 5 17 27
24 18 5 33 10 35 10 1 1 2 -3 2 -8z m220 -11 c0 -15 -12 -23 -52 -34 -105 -30
-110 -30 -106 -11 2 13 25 25 78 41 41 12 76 22 78 23 1 1 2 -8 2 -19z m-527
-20 c-3 -11 -6 -20 -7 -20 0 0 -22 -7 -48 -15 -45 -13 -48 -13 -48 4 0 13 14
22 53 33 28 9 53 16 54 17 0 0 -1 -8 -4 -19z m-443 -5 c0 -13 -55 -35 -87 -35
-27 0 -11 30 20 39 48 14 67 13 67 -4z m620 -13 c0 -15 -15 -22 -72 -35 -88
-21 -88 -21 -88 -2 0 8 17 19 43 25 23 6 53 15 67 20 39 13 50 11 50 -8z m110
-19 c0 -10 -20 -40 -20 -31 0 3 -3 13 -6 22 -4 11 -1 16 10 16 9 0 16 -3 16
-7z m-480 -18 c0 -15 -20 -26 -72 -39 -23 -5 -28 -3 -28 13 0 14 11 22 38 29
53 14 62 14 62 -3z m-250 -10 c0 -8 -17 -19 -42 -26 -24 -6 -46 -13 -50 -16
-5 -2 -8 5 -8 16 0 14 10 23 33 30 48 14 67 13 67 -4z m433 -4 c-3 -14 -22
-24 -66 -35 -34 -9 -110 -29 -169 -45 -100 -27 -108 -28 -108 -12 0 13 13 22
48 31 26 7 99 27 162 45 139 40 139 40 133 16z m187 -10 c0 -15 -16 -22 -80
-39 -75 -18 -80 -19 -80 -2 0 13 18 22 73 38 91 26 87 25 87 3z m-622 -48 c-2
-11 -20 -21 -51 -29 -43 -11 -47 -10 -47 6 0 12 12 21 38 28 55 15 64 14 60
-5z m388 -12 c-10 -11 -29 -24 -44 -30 -23 -9 -240 -71 -249 -71 -2 0 -3 8 -3
18 0 14 28 25 153 59 83 23 154 42 156 42 2 1 -4 -8 -13 -18z m-326 -30 c0
-15 -19 -23 -98 -45 -114 -30 -122 -31 -122 -11 0 8 17 19 43 25 32 9 157 44
175 49 1 1 2 -7 2 -18z m0 -66 c0 -8 -17 -19 -42 -25 -24 -7 -73 -20 -110 -30
-65 -18 -68 -18 -68 -1 0 14 20 24 93 44 109 30 127 32 127 12z"/>
<path d="M3020 1621 c0 -6 5 -13 10 -16 6 -3 10 -17 10 -31 0 -15 6 -24 15
-24 8 0 15 -4 15 -8 0 -5 7 -17 15 -28 13 -17 14 -13 15 49 l0 67 -40 0 c-22
0 -40 -4 -40 -9z"/>
<path d="M0 1246 c0 -9 5 -16 10 -16 6 0 10 4 10 9 0 6 -4 13 -10 16 -5 3 -10
-1 -10 -9z"/>
</g>
</svg>
